<svg xmlns="http://www.w3.org/2000/svg" width="113" height="32" fill="none"><rect width="32" height="32" fill="#171717" rx="8"/><path fill="#fff" d="M16 8H8l8 8H8l8 8h8l-8-8h8l-8-8Z"/><path fill="#171717" d="M45.376 21.5V10.14h2.192l5.248 9.264V10.14h1.728V21.5h-2.272l-5.168-9.056V21.5h-1.728Zm14.454.192c-2.432 0-4.032-1.744-4.032-4.448 0-2.704 1.6-4.448 4.032-4.448s4.032 1.744 4.032 4.448c0 2.704-1.6 4.448-4.032 4.448Zm0-1.472c1.44 0 2.272-1.104 2.272-2.976 0-1.872-.832-2.976-2.272-2.976s-2.272 1.104-2.272 2.976c0 1.872.832 2.976 2.272 2.976Zm7.662 1.472c-1.776 0-2.913-.848-2.913-2.32 0-1.456.849-2.24 2.72-2.608l2.928-.56c0-1.312-.624-1.968-1.84-1.968-1.088 0-1.695.496-1.92 1.424l-1.743-.112c.32-1.696 1.647-2.752 3.663-2.752 2.305 0 3.537 1.296 3.537 3.504v3.312c0 .416.127.544.447.544h.305V21.5c-.112.032-.368.048-.624.048-.977 0-1.553-.368-1.68-1.36-.433.896-1.552 1.504-2.88 1.504Zm.271-1.344c1.536 0 2.465-.96 2.465-2.32v-.544l-2.496.48c-1.025.192-1.392.592-1.392 1.248 0 .736.511 1.136 1.423 1.136ZM73.39 21.5V10.14h1.696v4.08c.448-.976 1.376-1.424 2.496-1.424 1.856 0 2.864 1.328 2.864 3.232V21.5H78.75v-5.024c0-1.52-.528-2.256-1.616-2.256-1.248 0-2.048.8-2.048 2.288V21.5H73.39Zm12.24 0V10.14h7.392v1.584h-5.664v3.312h5.472v1.536h-5.472v3.344h5.792V21.5h-7.52Zm10.79 0c-1.12 0-1.856-.544-1.856-1.808V10.14h1.696v9.392c0 .4.208.576.592.576h.672V21.5H96.42Zm3.72 0c-1.12 0-1.856-.544-1.856-1.808V10.14h1.695v9.392c0 .4.209.576.593.576h.672V21.5h-1.104Zm1.862-9.744V10.06h1.76v1.696h-1.76Zm.032 9.744v-8.512h1.696V21.5h-1.696Zm6.578.192c-2.4 0-3.68-1.2-3.808-2.88l1.744-.08c.16.944.768 1.536 2.064 1.536 1.056 0 1.728-.32 1.728-1.072 0-.624-.32-.896-2.016-1.184-2.528-.448-3.312-1.184-3.312-2.576 0-1.552 1.184-2.64 3.392-2.64 2.192 0 3.328 1.248 3.568 2.8l-1.744.096c-.16-.88-.784-1.472-1.84-1.472-1.088 0-1.616.48-1.616 1.152 0 .752.496 1.056 1.888 1.28 2.656.432 3.44 1.136 3.44 2.528 0 1.6-1.456 2.512-3.488 2.512Z"/></svg>